<?xml version="1.0" encoding="utf-8"?>
<!-- Generator: Adobe Illustrator 16.0.0, SVG Export Plug-In . SVG Version: 6.00 Build 0)  -->
<!DOCTYPE svg PUBLIC "-//W3C//DTD SVG 1.1//EN" "http://www.w3.org/Graphics/SVG/1.1/DTD/svg11.dtd">
<svg version="1.1" xmlns="http://www.w3.org/2000/svg" xmlns:xlink="http://www.w3.org/1999/xlink" x="0px" y="0px"
	 width="263.869px" height="267.097px" viewBox="0 0 263.869 267.097" enable-background="new 0 0 263.869 267.097"
	 xml:space="preserve">
<g id="Layer_1">
</g>
<g id="Layer_2">
	<g>
		<path fill="none" stroke="#7B7B7B" stroke-width="15" stroke-miterlimit="10" d="M246.732,133.39
			c0,60.656-51.75,109.828-115.585,109.828c-63.849,0-115.6-49.172-115.6-109.828c0-60.67,51.75-109.843,115.6-109.843
			C194.982,23.547,246.732,72.72,246.732,133.39z"/>
		<g>
			<g>
				<path fill="#7B7B7B" d="M101.746,108.524c19.181,13.443,38.363,26.886,57.544,40.329c0.285,0.199,0.57,0.399,0.855,0.6
					c1.696,1.188-6.088-5.125-4.095-3.076c-0.879-1.146-1.759-2.293-2.639-3.439c1.872,3.275,1.274,0.766-1.792-7.531
					c-0.885-8.971,7.318-13.443,2.933-9.93c-2.116,1.695,5.492-4.217,3.179-2.455c-0.586,0.446-1.178,0.885-1.769,1.323
					c-5.719,4.24-11.563,8.315-17.392,12.403c-11.705,8.208-23.471,16.328-35.257,24.418c-0.522,0.359-1.045,0.718-1.568,1.076
					c-10.096,6.917-14.607,19.629-8.072,30.784c5.863,10.008,20.651,15.015,30.784,8.071c9.457-6.479,18.888-12.994,28.298-19.54
					c6.705-4.664,13.399-9.346,20.044-14.096c5.373-3.843,11.42-7.534,15.88-12.408c13.15-14.371,8.455-34.451-6.468-44.909
					c-3.884-2.722-7.767-5.443-11.65-8.165c-12.524-8.777-25.047-17.554-37.571-26.331c-2.844-1.994-5.688-3.987-8.533-5.98
					c-10.061-7.051-24.97-1.853-30.784,8.072C87.089,88.979,91.724,101.5,101.746,108.524L101.746,108.524z"/>
			</g>
		</g>
	</g>
</g>
</svg>
