<?xml version="1.0" encoding="utf-8"?>
<!-- Generator: Adobe Illustrator 16.0.0, SVG Export Plug-In . SVG Version: 6.00 Build 0)  -->
<!DOCTYPE svg PUBLIC "-//W3C//DTD SVG 1.1//EN" "http://www.w3.org/Graphics/SVG/1.1/DTD/svg11.dtd">
<svg version="1.1" id="Layer_1" xmlns="http://www.w3.org/2000/svg" xmlns:xlink="http://www.w3.org/1999/xlink" x="0px" y="0px"
	 width="485px" height="460px" viewBox="0 0 485 460" enable-background="new 0 0 485 460" xml:space="preserve">
<path fill="transparent" d="M457.238,370.587c0,9.325-0.006,18.65,0.001,27.975c0.017,22.063-11.86,33.94-33.915,33.931
	c-19.982-0.009-39.964-0.025-59.945,0.013c-7.828,0.015-12.481,3.938-12.603,10.444c-0.126,6.765,4.599,11.025,12.514,11.044
	c20.481,0.048,40.965,0.157,61.444-0.021c29.121-0.254,53.728-24.853,53.984-53.971c0.182-20.48,0.07-40.963,0.022-61.444
	c-0.018-7.923-4.267-12.646-11.03-12.528c-6.471,0.114-10.426,4.813-10.459,12.588C457.207,349.272,457.24,359.93,457.238,370.587z
	 M30.775,370.829c0-10.823,0.065-21.646-0.022-32.468c-0.062-7.691-4.188-12.311-10.738-12.319
	c-6.569-0.008-10.725,4.592-10.751,12.293c-0.071,20.812-0.23,41.628,0.023,62.438c0.316,25.916,21.479,50.494,47.3,52.359
	c23.52,1.7,47.241,0.813,70.871,0.658c6.309-0.041,10.218-5.454,9.708-11.601c-0.496-5.985-5.031-9.656-12.325-9.677
	c-20.646-0.059-41.293,0.099-61.938-0.062c-19.993-0.156-31.946-12.23-32.106-32.151C30.718,390.477,30.784,380.652,30.775,370.829z
	 M395.511,5.989c0,0.011,0,0.022,0,0.033c-11.323,0-22.647-0.09-33.969,0.038c-5.806,0.065-9.808,3.503-10.614,8.605
	c-1.148,7.261,3.708,12.564,11.734,12.585c20.148,0.052,40.297,0.009,60.445,0.02c22.379,0.013,34.099,11.768,34.128,34.262
	c0.025,19.982-0.032,39.964,0.028,59.946c0.023,7.576,4.322,12.456,10.706,12.479c6.35,0.021,10.744-4.912,10.766-12.423
	c0.059-20.814,0.27-41.633-0.047-62.443c-0.438-28.867-25.315-53.035-54.204-53.099C414.826,5.971,405.169,5.989,395.511,5.989z
	 M92.442,5.985c-8.992,0-18.007,0.417-26.972-0.076C36.646,4.322,8.402,30.202,9.139,62.141c0.449,19.474,0.062,38.965,0.125,58.448
	c0.007,2.134,0.143,4.396,0.852,6.373c1.628,4.542,5.204,6.982,9.957,6.924c4.722-0.059,8.367-2.445,9.841-7.072
	c0.738-2.317,0.823-4.911,0.831-7.382c0.063-19.815-0.033-39.632,0.058-59.448C30.896,39.465,43.03,27.335,63.438,27.28
	c20.482-0.055,40.964,0.011,61.447-0.028c7.708-0.014,12.293-4.043,12.334-10.649c0.041-6.651-4.47-10.58-12.306-10.606
	C114.09,5.96,103.266,5.987,92.442,5.985z M243.742,368.675c31.555-0.76,58.732-11.877,81.279-34.023
	c5.307-5.212,5.637-11.868,1.095-16.319c-4.632-4.54-10.798-4.026-16.267,1.355c-37.656,37.057-94.12,37.061-131.706,0.009
	c-5.451-5.373-11.66-5.893-16.265-1.36c-4.528,4.457-4.188,11.122,1.104,16.321C185.391,356.676,212.405,367.785,243.742,368.675z
	 M265.25,204.969c0-12.989,0.092-25.98-0.04-38.969c-0.063-6.178-4.474-10.59-10.22-10.741c-5.934-0.156-10.613,4.335-10.976,10.587
	c-0.087,1.494-0.023,2.997-0.023,4.496c0.002,23.315,0.056,46.63-0.012,69.945c-0.039,13.445-7.441,21.095-20.832,21.676
	c-3.658,0.159-7.33-0.044-10.99,0.07c-6.312,0.198-10.979,4.817-10.887,10.639c0.093,5.907,4.705,10.358,11.054,10.556
	c3.162,0.099,6.328,0.034,9.492,0.022c23.364-0.091,43.256-19.899,43.411-43.309C265.307,228.285,265.242,216.627,265.25,204.969z
	 M158.741,176.69c0-3.489,0.151-6.986-0.033-10.466c-0.344-6.526-4.672-10.899-10.6-10.961c-5.918-0.061-10.54,4.302-10.781,10.751
	c-0.26,6.969-0.237,13.96-0.016,20.932c0.204,6.426,4.76,10.939,10.591,11.011c6.015,0.073,10.531-4.568,10.819-11.299
	C158.863,183.342,158.746,180.014,158.741,176.69z M350.734,176.562c0-3.489,0.158-6.987-0.033-10.466
	c-0.357-6.451-4.789-10.823-10.723-10.835c-5.914-0.011-10.452,4.386-10.665,10.857c-0.229,6.971-0.244,13.962,0.004,20.932
	c0.229,6.433,4.857,10.911,10.69,10.906c5.822-0.006,10.347-4.522,10.697-10.928C350.895,183.55,350.738,180.052,350.734,176.562z"
	/>
<path fill-rule="evenodd" clip-rule="evenodd" fill="#7b7b7b" d="M457.239,370.587c0.001-10.657-0.032-21.314,0.013-31.971
	c0.033-7.774,3.988-12.474,10.459-12.588c6.764-0.118,11.013,4.605,11.03,12.528c0.048,20.481,0.159,40.964-0.022,61.444
	c-0.257,29.118-24.863,53.717-53.984,53.971c-20.479,0.179-40.963,0.069-61.444,0.021c-7.915-0.019-12.64-4.279-12.514-11.044
	c0.121-6.506,4.774-10.43,12.603-10.444c19.981-0.038,39.963-0.021,59.945-0.013c22.055,0.01,33.932-11.867,33.915-33.931
	C457.232,389.237,457.238,379.912,457.239,370.587z"/>
<path fill-rule="evenodd" clip-rule="evenodd" fill="#7b7b7b" d="M30.779,370.829c0.004,9.823-0.061,19.647,0.018,29.471
	c0.16,19.921,12.113,31.995,32.106,32.151c20.645,0.161,41.292,0.004,61.938,0.062c7.294,0.021,11.829,3.691,12.325,9.677
	c0.51,6.146-3.399,11.56-9.708,11.601c-23.63,0.155-47.351,1.042-70.871-0.658c-25.821-1.865-46.984-26.443-47.3-52.359
	c-0.254-20.811-0.095-41.626-0.023-62.438c0.026-7.701,4.182-12.301,10.751-12.293c6.549,0.009,10.676,4.628,10.738,12.319
	C30.84,349.183,30.775,360.006,30.779,370.829z"/>
<path fill-rule="evenodd" clip-rule="evenodd" fill="#7b7b7b" d="M395.511,5.989c9.658,0,19.315-0.019,28.974,0.003
	c28.889,0.063,53.766,24.231,54.204,53.099c0.316,20.811,0.105,41.629,0.047,62.443c-0.021,7.511-4.416,12.444-10.766,12.423
	c-6.384-0.022-10.683-4.902-10.706-12.479c-0.061-19.982-0.003-39.964-0.028-59.946c-0.029-22.494-11.749-34.249-34.128-34.262
	c-20.148-0.011-40.297,0.032-60.445-0.02c-8.026-0.021-12.883-5.324-11.734-12.585c0.807-5.103,4.809-8.54,10.614-8.605
	c11.321-0.128,22.646-0.038,33.969-0.038C395.511,6.012,395.511,6,395.511,5.989z"/>
<path fill-rule="evenodd" clip-rule="evenodd" fill="#7b7b7b" d="M92.442,5.986c10.824,0.001,21.648-0.026,32.472,0.01
	c7.835,0.026,12.347,3.955,12.306,10.606c-0.041,6.606-4.627,10.636-12.334,10.649c-20.482,0.039-40.965-0.026-61.447,0.028
	C43.03,27.335,30.896,39.465,30.802,59.983c-0.091,19.816,0.005,39.633-0.058,59.448c-0.008,2.471-0.092,5.064-0.831,7.382
	c-1.474,4.627-5.12,7.014-9.841,7.072c-4.753,0.059-8.329-2.382-9.957-6.924c-0.709-1.977-0.845-4.239-0.852-6.373
	C9.2,101.105,9.588,81.614,9.139,62.141C8.402,30.202,36.646,4.322,65.47,5.909C74.435,6.402,83.45,5.985,92.442,5.986z"/>
<path fill-rule="evenodd" clip-rule="evenodd" fill="#7b7b7b" d="M243.742,368.675c-31.337-0.89-58.351-11.999-80.759-34.018
	c-5.292-5.199-5.632-11.864-1.104-16.321c4.605-4.532,10.813-4.013,16.265,1.36c37.586,37.052,94.05,37.048,131.706-0.009
	c5.469-5.382,11.635-5.896,16.267-1.355c4.542,4.451,4.212,11.107-1.095,16.319C302.475,356.798,275.297,367.915,243.742,368.675z"
	/>
<path fill-rule="evenodd" clip-rule="evenodd" fill="#7b7b7b" d="M265.246,204.969c-0.004,11.658,0.061,23.316-0.018,34.973
	c-0.155,23.409-20.047,43.218-43.411,43.309c-3.164,0.012-6.331,0.076-9.492-0.022c-6.349-0.197-10.961-4.648-11.054-10.556
	c-0.092-5.821,4.575-10.44,10.887-10.639c3.66-0.114,7.332,0.089,10.99-0.07c13.39-0.581,20.792-8.23,20.832-21.676
	c0.067-23.315,0.014-46.63,0.012-69.945c0-1.499-0.063-3.002,0.023-4.496c0.362-6.252,5.042-10.743,10.976-10.587
	c5.746,0.151,10.156,4.563,10.22,10.741C265.342,178.988,265.25,191.979,265.246,204.969z"/>
<path fill-rule="evenodd" clip-rule="evenodd" fill="#7b7b7b" d="M158.743,176.69c0.002,3.323,0.12,6.651-0.022,9.968
	c-0.288,6.73-4.804,11.372-10.819,11.299c-5.832-0.071-10.388-4.585-10.591-11.011c-0.221-6.972-0.244-13.963,0.016-20.932
	c0.241-6.449,4.863-10.812,10.781-10.751c5.928,0.062,10.255,4.435,10.6,10.961C158.892,169.704,158.741,173.201,158.743,176.69z"/>
<path fill-rule="evenodd" clip-rule="evenodd" fill="#7b7b7b" d="M350.736,176.562c0.002,3.489,0.158,6.987-0.031,10.467
	c-0.351,6.405-4.875,10.922-10.697,10.928c-5.833,0.005-10.462-4.474-10.69-10.906c-0.248-6.97-0.233-13.961-0.004-20.932
	c0.213-6.472,4.751-10.868,10.665-10.857c5.934,0.012,10.365,4.384,10.723,10.835C350.893,169.575,350.734,173.073,350.736,176.562z
	"/>
</svg>
